<svg width="119" height="163" viewBox="0 0 119 163" fill="none" xmlns="http://www.w3.org/2000/svg">
<path fill-rule="evenodd" clip-rule="evenodd" d="M60.8376 89.8868C45.1408 89.8868 32.4426 77.174 32.4426 61.4905C32.4426 45.8151 45.1408 33.0914 60.8376 33.0914C76.5288 33.0914 89.238 45.8151 89.238 61.4905C89.238 77.174 76.5288 89.8868 60.8376 89.8868M59.2269 0.636353C26.2186 0.636353 0 28.4615 0 62.7831C0 109.571 50.1632 157.919 50.1632 157.919C56.9121 164.309 61.1044 164.83 68.2799 157.919C68.2799 157.919 119 109.571 119 62.7831C119 28.4615 92.2325 0.636353 59.2269 0.636353" fill="#F55A5A"/>
</svg>
